<svg width="11" height="10" viewBox="0 0 11 10" fill="none" xmlns="http://www.w3.org/2000/svg">
<path fill-rule="evenodd" clip-rule="evenodd" d="M4.44538 3.74965L5.23627 8.29448L9.38632 0.861703L4.44538 3.74965ZM9.1159 0.472027H0.868637L4.20672 3.33165L9.1159 0.472027ZM9.92134 0.00984444H0.233136C0.140699 0.00984444 0.0482625 0.0676172 0.0135988 0.160054C-0.021065 0.25249 0.0135987 0.344927 0.0829262 0.414255L3.96526 3.74197L4.87808 9.02241C4.90119 9.12641 4.97051 9.20729 5.0745 9.21884H5.10917C5.19005 9.21884 5.27093 9.17262 5.31715 9.1033L10.1932 0.356482C10.2105 0.330507 10.2197 0.301289 10.2226 0.271257C10.2318 0.219534 10.2236 0.164472 10.1932 0.113847C10.134 0.0250045 10.0241 -0.021671 9.92134 0.00984444Z" fill="#00BCE9"/>
</svg>
