<svg width="9" height="8" viewBox="0 0 9 8" fill="none" xmlns="http://www.w3.org/2000/svg">
<path d="M8.42653 7.98893H5.59428C5.46554 7.98893 5.3485 7.87826 5.3485 7.75653V6.20717C5.3485 5.9969 5.25488 5.80876 5.09103 5.66489C4.92718 5.52102 4.72822 5.45462 4.49415 5.47675C4.09623 5.50995 3.79194 5.85303 3.79194 6.2625V7.7676C3.79194 7.88933 3.6749 8 3.54616 8H0.550065C0.245774 8 0 7.7676 0 7.47986V3.94952C0 3.80565 0.0702211 3.66178 0.187256 3.56218L4.21326 0.131451C4.42393 -0.0456194 4.75163 -0.0456194 4.96229 0.142518L8.82445 3.56218C8.92978 3.66178 9 3.79459 9 3.93846V7.45772C8.97659 7.75653 8.73082 7.98893 8.42653 7.98893ZM5.82835 7.53519H8.43823C8.47334 7.53519 8.50845 7.50199 8.50845 7.46879V3.94952L4.62289 0.474524C4.59948 0.45239 4.55267 0.45239 4.51755 0.474524L0.491548 3.90526C0.479844 3.91632 0.46814 3.93846 0.46814 3.96059V7.47986C0.46814 7.51306 0.503251 7.54626 0.538362 7.54626H3.31209V6.25143C3.31209 5.62062 3.81534 5.07834 4.44733 5.02301C4.79844 4.98981 5.13784 5.10048 5.40702 5.33288C5.6645 5.55422 5.81664 5.87516 5.81664 6.20717V7.53519H5.82835Z" fill="#00BCE9"/>
</svg>
