<svg width="7" height="11" viewBox="0 0 7 11" fill="none" xmlns="http://www.w3.org/2000/svg">
<path fill-rule="evenodd" clip-rule="evenodd" d="M0.785711 0H6.12393C6.55145 0 6.89808 0.346637 6.90964 0.785711V10.1103C6.90964 10.5493 6.55145 10.896 6.12393 10.896H0.785711C0.346637 10.896 0 10.5378 0 10.1103V0.785711C0 0.346637 0.358192 0 0.785711 0ZM6.47056 2.18382H0.427519V8.22686H6.47056V2.18382ZM6.12393 0.427519H0.785711C0.589284 0.427519 0.427519 0.589283 0.427519 0.785711V1.7563H6.48212V0.785711C6.48212 0.589283 6.32035 0.427519 6.12393 0.427519ZM0.785711 10.4569H6.12393C6.32035 10.4569 6.47056 10.2951 6.47056 10.0987V8.64282H0.427519V10.0987C0.427519 10.2951 0.589284 10.4569 0.785711 10.4569ZM3.89389 9.53253C3.89389 9.7814 3.69214 9.98316 3.44326 9.98316C3.19438 9.98316 2.99263 9.7814 2.99263 9.53253C2.99263 9.28365 3.19438 9.0819 3.44326 9.0819C3.69214 9.0819 3.89389 9.28365 3.89389 9.53253Z" fill="#00BCE9"/>
</svg>
